<?xml version="1.0" standalone="no"?>
<!DOCTYPE svg PUBLIC "-//W3C//DTD SVG 20010904//EN"
 "http://www.w3.org/TR/2001/REC-SVG-20010904/DTD/svg10.dtd">
<svg version="1.0" xmlns="http://www.w3.org/2000/svg"
 width="794.000000pt" height="794.000000pt" viewBox="0 0 794.000000 794.000000"
 preserveAspectRatio="xMidYMid meet">
<metadata>
Created by potrace 1.14, written by Peter Selinger 2001-2017
</metadata>
<g transform="translate(0.000000,794.000000) scale(0.100000,-0.100000)"
fill="#000000" stroke="none">
<path d="M3293 7408 c-84 -106 -165 -207 -180 -224 -15 -16 -43 -48 -62 -70
-212 -246 -548 -535 -828 -713 -53 -33 -64 -47 -40 -49 6 0 30 -3 52 -6 156
-22 747 -28 1135 -13 282 12 379 16 480 21 52 3 151 8 220 11 69 3 144 8 166
10 23 2 90 7 150 10 60 3 120 8 134 10 14 2 66 7 115 10 50 4 104 8 120 10 17
1 68 6 115 9 47 4 96 9 110 11 14 2 48 6 75 9 28 3 73 8 100 11 28 4 66 8 85
10 33 4 100 13 145 19 11 2 45 7 75 10 69 9 218 42 256 56 l29 11 -50 31
c-283 178 -881 490 -1210 633 -268 116 -298 128 -505 202 -170 61 -219 77
-520 168 -11 4 -63 -55 -167 -187z"/>
<path d="M5648 5955 c-2 -1 -201 -6 -443 -9 -242 -4 -483 -8 -535 -10 -435
-17 -693 -29 -880 -41 -36 -3 -103 -7 -150 -10 -196 -12 -248 -16 -300 -20
-30 -3 -77 -7 -105 -10 -27 -2 -91 -7 -142 -10 -51 -3 -100 -8 -110 -9 -10 -2
-56 -7 -103 -10 -47 -4 -98 -8 -115 -10 -26 -3 -117 -13 -205 -21 -82 -8 -158
-16 -180 -20 -14 -2 -59 -7 -100 -11 -41 -3 -82 -7 -90 -9 -8 -2 -44 -6 -80
-10 -36 -3 -76 -8 -90 -10 -14 -2 -50 -6 -80 -10 -30 -4 -66 -8 -80 -10 -36
-5 -108 -15 -155 -21 -37 -4 -86 -11 -145 -19 -14 -2 -45 -7 -70 -10 -25 -3
-74 -11 -110 -16 -100 -15 -111 -17 -170 -25 -30 -4 -57 -8 -60 -9 -3 -1 -35
-5 -73 -9 l-67 -8 -137 -132 c-373 -358 -461 -465 -520 -630 l-21 -61 46 -7
c43 -6 598 -1 732 6 30 2 114 7 185 10 72 4 153 9 180 11 28 2 95 6 150 10 55
3 127 8 160 10 83 7 165 13 265 20 47 3 105 7 130 10 62 6 159 14 255 20 44 3
100 8 125 10 25 2 81 7 125 10 44 4 100 8 125 10 25 3 81 7 125 10 44 3 101 8
127 11 27 2 76 7 110 9 69 5 178 14 248 20 25 2 86 7 135 10 50 3 115 8 145
10 59 5 151 12 295 20 182 10 262 15 330 20 116 9 206 15 290 20 44 3 109 7
145 10 36 3 97 8 135 10 39 3 98 7 131 10 34 3 97 7 140 10 44 3 104 7 134 10
30 2 82 7 115 9 33 3 87 8 120 11 33 3 96 7 140 10 44 3 96 8 115 10 19 2 71
7 115 10 44 4 97 8 118 11 20 2 68 6 105 9 37 4 85 8 107 10 22 2 72 6 110 10
39 3 86 8 105 10 19 3 60 7 90 10 67 6 143 14 190 20 19 2 60 7 90 10 30 3 82
10 115 15 33 5 80 12 105 15 25 3 59 8 75 12 17 4 35 7 40 8 50 5 106 19 111
26 3 5 -4 22 -16 37 -12 15 -50 68 -85 117 -35 50 -69 96 -76 104 -7 7 -28 34
-47 60 -46 61 -256 268 -309 305 l-42 28 -503 4 c-277 3 -511 6 -520 8 -9 2
-18 3 -20 1z"/>
<path d="M7287 4884 c-1 -1 -29 -4 -62 -7 -249 -20 -405 -204 -360 -422 17
-79 45 -131 97 -182 47 -45 163 -123 184 -123 7 0 14 -3 16 -7 2 -5 53 -32
113 -62 118 -58 178 -109 184 -158 20 -146 -67 -228 -239 -227 -30 1 -166 15
-180 19 -9 3 -44 16 -68 26 -13 5 -31 9 -41 9 -19 0 -20 -23 -7 -150 3 -19 5
-42 5 -51 1 -10 13 -16 40 -17 21 -2 54 -5 72 -7 36 -5 228 -6 269 -1 20 2 72
11 120 21 56 11 143 56 183 93 33 31 85 102 89 123 2 8 6 16 9 19 17 13 27
161 15 221 -8 44 -44 116 -76 152 -45 51 -141 112 -315 200 -159 80 -185 99
-211 149 -19 37 -14 100 10 127 9 10 13 21 9 24 -3 4 1 7 10 7 10 0 17 4 17 9
0 5 10 12 23 16 12 4 29 10 37 12 38 14 199 5 277 -16 45 -11 83 -21 86 -21 2
0 3 17 1 38 -2 20 -5 63 -8 96 -2 32 -8 62 -13 66 -11 11 -275 33 -286 24z"/>
<path d="M5317 4703 c-2 -1 -110 -11 -138 -12 -13 -1 -36 -67 -53 -151 -2 -8
-6 -22 -9 -30 -3 -8 -13 -46 -22 -85 -9 -38 -21 -81 -26 -95 -5 -14 -11 -36
-13 -50 -3 -14 -19 -79 -36 -145 -40 -152 -36 -137 -60 -225 -11 -41 -22 -84
-24 -96 -7 -46 -19 -47 -39 -3 -12 24 -22 49 -23 54 -2 9 -45 114 -148 365
-15 36 -31 74 -35 85 -21 51 -34 82 -46 110 -7 17 -30 72 -51 124 l-38 93 -95
-6 c-155 -10 -225 -16 -239 -21 -7 -3 -11 -15 -8 -32 3 -16 7 -71 11 -123 9
-127 13 -192 20 -270 8 -104 13 -187 20 -305 3 -60 8 -126 10 -145 2 -19 6
-69 9 -110 16 -205 18 -236 17 -250 0 -33 10 -59 22 -55 11 3 124 13 169 15
14 0 16 8 13 48 -2 26 -7 97 -11 157 -7 114 -11 160 -14 160 0 0 -2 29 -4 65
-11 214 -20 307 -30 319 -8 12 -8 13 2 7 9 -6 11 -2 8 16 -10 44 -15 203 -6
188 4 -8 27 -62 50 -120 23 -58 53 -129 66 -158 13 -29 24 -55 24 -57 0 -7
155 -385 188 -457 18 -40 31 -58 44 -58 10 0 18 6 18 13 0 8 3 8 8 1 7 -10 16
-10 114 -3 50 4 51 5 73 109 2 8 13 50 25 92 11 43 23 86 25 98 2 11 6 24 9
28 3 5 7 19 10 33 9 41 13 61 40 162 15 54 40 148 56 210 36 140 48 176 50
157 2 -16 3 -31 15 -195 4 -60 9 -126 10 -145 2 -19 6 -78 9 -130 4 -52 8
-115 11 -140 2 -25 7 -92 10 -150 12 -195 11 -192 58 -185 18 2 66 7 107 10
41 3 76 8 79 10 4 5 2 80 -4 160 -2 22 -7 87 -10 145 -4 58 -12 111 -18 119
-9 11 -9 13 0 8 8 -5 10 4 7 31 -4 43 -12 149 -19 257 -17 258 -22 313 -31
327 -5 7 -3 8 6 3 8 -5 11 -4 7 2 -5 8 -19 158 -20 221 0 9 -20 11 -74 10 -41
-2 -75 -4 -76 -5z"/>
<path d="M3879 4596 c-4 -4 -108 -14 -222 -21 -27 -2 -50 -5 -53 -7 -5 -5 -51
-177 -59 -218 -1 -8 -5 -22 -8 -30 -5 -12 -56 -205 -72 -270 -2 -8 -8 -35 -14
-60 -6 -25 -24 -94 -41 -155 -17 -60 -35 -130 -41 -153 l-12 -44 -34 84 c-18
45 -38 92 -43 103 -5 11 -35 83 -65 160 -31 77 -62 153 -70 170 -7 16 -27 66
-45 110 -17 44 -39 98 -50 120 -10 22 -26 62 -36 88 l-17 48 -121 -7 c-66 -3
-127 -8 -136 -9 -8 -2 -32 -4 -53 -4 l-38 -1 5 -42 c3 -24 8 -90 11 -148 3
-58 8 -130 10 -160 2 -30 7 -89 10 -130 3 -41 8 -100 10 -130 2 -30 7 -100 10
-155 4 -55 8 -120 10 -145 6 -60 23 -298 28 -367 1 -18 1 -18 112 -8 91 8 98
10 91 33 -3 10 -8 58 -11 107 -8 133 -14 212 -20 290 -3 39 -7 106 -10 150 -3
44 -7 109 -10 145 -11 170 -15 223 -20 230 -3 5 -2 11 3 14 4 2 14 -10 21 -27
7 -18 16 -41 21 -52 5 -11 34 -83 66 -160 31 -77 59 -144 63 -150 3 -5 6 -15
7 -21 1 -6 9 -27 17 -45 23 -50 50 -113 53 -124 1 -5 27 -68 57 -140 l54 -130
39 2 c84 3 164 10 168 14 4 4 64 226 70 259 1 8 5 22 9 30 4 8 11 35 17 60 6
25 12 52 15 60 16 59 42 156 75 285 22 83 44 164 49 180 9 28 9 27 11 -20 2
-27 4 -59 5 -70 2 -11 6 -69 9 -130 4 -60 9 -130 11 -154 3 -24 7 -85 10 -135
3 -50 7 -111 10 -136 7 -70 18 -243 16 -267 -1 -26 2 -26 79 -23 30 1 58 7 62
13 6 9 8 9 8 1 0 -10 78 -8 89 2 4 4 3 65 -4 124 -2 19 -7 85 -11 145 -4 61
-8 124 -9 140 -2 17 -6 75 -10 130 -4 55 -9 114 -10 130 -1 17 -5 89 -9 160
-4 72 -9 141 -11 155 -4 22 -10 112 -19 253 -2 35 -17 63 -27 53z"/>
<path d="M6587 4464 c-3 -3 -120 -12 -175 -13 l-44 -1 6 -57 c3 -32 8 -98 12
-148 3 -49 7 -112 10 -140 18 -245 18 -262 -10 -309 -23 -39 -55 -76 -100
-113 -18 -15 -88 -34 -113 -30 -10 1 -28 9 -39 17 -41 29 -50 63 -59 225 -4
72 -14 212 -21 300 -2 28 -6 85 -9 129 -3 43 -8 83 -11 88 -4 5 -41 6 -92 2
-48 -4 -100 -8 -117 -9 -30 -2 -30 -2 -28 -56 1 -59 11 -213 18 -299 4 -52 9
-127 20 -285 3 -38 7 -79 9 -91 30 -151 127 -235 266 -229 60 2 153 32 144 46
-3 5 1 6 8 4 19 -8 90 56 125 110 15 25 31 45 36 45 4 0 8 -24 8 -52 1 -29 2
-57 4 -63 1 -5 3 -18 3 -28 2 -17 9 -18 85 -12 45 4 100 8 122 10 39 2 40 3
39 36 -2 39 -13 199 -19 274 -2 28 -7 93 -10 145 -4 52 -8 118 -10 145 -3 28
-7 86 -10 130 -3 44 -8 105 -10 135 -2 30 -4 64 -4 76 -1 17 -23 29 -34 18z"/>
<path d="M1157 4383 c-3 -3 -122 -12 -165 -12 l-43 -1 6 -62 c5 -61 8 -100 20
-278 3 -47 8 -109 11 -137 l6 -53 -44 -1 c-23 0 -50 -2 -58 -3 -14 -3 -112
-11 -275 -22 -38 -3 -87 -6 -107 -8 -37 -4 -38 -3 -39 28 -1 42 -6 127 -13
206 -5 55 -17 239 -19 276 0 11 -96 10 -162 -1 -11 -2 -37 -4 -59 -4 l-38 -1
6 -97 c4 -54 9 -125 12 -158 3 -33 7 -87 9 -120 2 -33 7 -100 11 -150 10 -145
12 -166 14 -237 2 -38 6 -68 9 -68 3 0 7 -35 7 -78 1 -73 11 -247 19 -322 2
-19 4 -41 4 -49 1 -10 21 -12 103 -7 57 4 116 9 131 12 27 6 28 8 23 47 -3 23
-8 83 -11 132 -3 50 -7 115 -10 145 -2 30 -7 98 -11 150 -3 52 -8 98 -10 102
-7 11 24 17 121 23 50 3 106 8 125 10 19 2 82 7 140 10 57 4 107 8 111 11 19
11 22 -9 33 -181 4 -55 9 -131 12 -170 10 -118 12 -158 13 -202 1 -29 5 -41
14 -38 10 3 71 9 212 19 30 2 30 2 29 61 -1 61 -11 218 -19 310 -2 28 -7 86
-10 130 -3 44 -8 105 -10 135 -5 72 -16 233 -20 290 -10 161 -17 263 -20 278
-2 9 -4 33 -4 53 -1 33 -4 37 -27 35 -14 0 -26 -2 -27 -3z"/>
<path d="M2267 4134 c-1 -1 -36 -4 -77 -8 -41 -3 -76 -6 -78 -6 -2 0 -1 -3 1
-7 3 -5 8 -60 12 -123 3 -63 8 -133 10 -155 2 -22 6 -85 10 -140 4 -55 8 -118
10 -141 2 -28 -4 -51 -21 -80 -34 -57 -102 -122 -139 -134 -40 -13 -115 -19
-109 -8 3 5 -1 11 -10 14 -36 14 -46 65 -62 309 -2 44 -6 98 -9 120 -2 22 -7
92 -11 155 -3 63 -8 122 -10 130 -1 8 -3 20 -3 27 -1 6 -11 10 -23 8 -13 -2
-66 -6 -118 -10 -84 -5 -117 -16 -105 -35 2 -3 6 -54 10 -115 4 -60 8 -130 10
-155 3 -25 7 -81 9 -125 5 -82 13 -174 22 -280 6 -60 38 -142 72 -180 42 -49
120 -79 202 -77 30 0 56 6 58 11 2 6 8 8 13 5 32 -20 177 95 218 173 18 35 20
36 21 13 4 -61 11 -136 14 -146 4 -10 84 -10 156 1 14 2 40 4 58 4 l34 1 -6
78 c-3 42 -8 118 -11 167 -3 50 -8 113 -10 140 -3 28 -7 86 -10 130 -3 44 -7
103 -10 130 -3 42 -15 221 -19 290 -1 17 -8 20 -49 20 -27 0 -49 -1 -50 -1z"/>
<path d="M7147 3114 c-1 -1 -108 -5 -237 -9 -129 -3 -260 -8 -290 -10 -30 -2
-125 -6 -210 -9 -187 -8 -334 -15 -455 -21 -49 -3 -135 -7 -190 -10 -124 -6
-288 -14 -380 -20 -38 -2 -119 -7 -180 -10 -153 -8 -259 -14 -335 -20 -36 -3
-112 -7 -170 -10 -103 -6 -130 -8 -300 -20 -47 -3 -116 -8 -155 -10 -38 -3
-97 -7 -130 -10 -33 -2 -96 -7 -140 -10 -44 -4 -100 -8 -125 -10 -25 -2 -83
-7 -130 -10 -47 -4 -101 -8 -120 -10 -19 -2 -78 -6 -130 -10 -52 -3 -111 -8
-130 -10 -19 -2 -80 -7 -135 -10 -55 -4 -111 -8 -125 -10 -14 -2 -65 -6 -115
-10 -49 -3 -106 -8 -125 -10 -19 -2 -73 -6 -120 -10 -47 -3 -101 -8 -120 -10
-19 -3 -66 -7 -105 -10 -38 -3 -90 -7 -115 -9 -25 -3 -76 -7 -115 -10 -38 -4
-99 -9 -135 -12 -36 -3 -81 -7 -100 -9 -19 -2 -71 -7 -115 -11 -44 -3 -89 -8
-99 -10 -10 -2 -51 -6 -90 -9 -39 -3 -82 -8 -96 -10 -14 -2 -59 -7 -100 -10
-41 -3 -109 -10 -150 -15 -41 -5 -100 -12 -130 -15 -130 -13 -413 -47 -490
-60 -14 -2 -45 -7 -70 -10 -86 -11 -285 -44 -338 -56 l-53 -11 5 -69 c12 -145
38 -272 82 -408 38 -115 124 -297 158 -334 l22 -24 519 2 c490 2 1013 10 1295
20 69 3 202 7 295 10 94 3 224 8 290 10 325 14 818 39 955 50 30 2 100 7 155
10 55 3 125 8 155 10 30 3 93 7 140 10 47 3 105 7 130 10 25 2 81 7 125 10 44
4 96 8 115 10 19 2 77 6 129 10 51 4 101 8 110 10 9 1 59 6 111 10 52 4 102 9
111 10 8 2 51 6 95 9 43 4 95 9 114 11 19 2 60 7 90 10 30 3 73 8 95 10 109
12 162 17 185 20 14 2 54 6 90 9 36 4 76 9 90 11 14 2 50 6 80 10 30 3 125 15
210 26 85 11 173 22 195 24 22 3 60 8 85 11 25 3 56 7 70 9 14 1 45 6 70 9 25
4 79 11 120 17 93 13 128 18 160 24 14 2 45 7 70 10 25 3 56 8 70 10 30 6 69
11 135 21 28 3 59 8 70 10 11 2 40 7 65 10 25 3 54 8 65 10 10 2 37 6 60 10
22 3 47 8 55 9 8 2 23 4 33 4 12 1 27 22 47 64 25 54 76 194 86 237 16 68 44
215 49 259 4 30 8 61 10 70 2 14 13 144 18 231 l2 25 -318 1 c-174 0 -318 -1
-320 -2z"/>
<path d="M7007 1534 c-1 -1 -130 -4 -287 -8 -157 -4 -312 -9 -345 -11 -33 -2
-118 -6 -190 -9 -71 -4 -168 -8 -215 -11 -47 -3 -125 -7 -175 -10 -49 -2 -133
-7 -185 -10 -52 -3 -126 -7 -165 -10 -38 -3 -117 -7 -175 -11 -117 -7 -152 -9
-290 -18 -52 -4 -126 -9 -165 -11 -38 -3 -97 -7 -130 -10 -33 -3 -96 -7 -140
-10 -75 -4 -122 -8 -270 -20 -33 -3 -91 -8 -130 -10 -38 -3 -95 -7 -125 -10
-30 -2 -89 -7 -130 -10 -41 -4 -95 -8 -120 -10 -25 -2 -83 -6 -130 -9 -85 -7
-158 -12 -260 -21 -30 -3 -89 -7 -130 -10 -142 -10 -205 -15 -245 -20 -45 -4
-139 -13 -230 -20 -115 -9 -190 -16 -230 -20 -22 -2 -71 -7 -110 -10 -165 -14
-285 -26 -325 -31 -34 -4 -94 -10 -195 -19 -50 -4 -71 -6 -235 -26 -47 -5
-105 -12 -130 -15 -25 -3 -56 -7 -70 -9 -14 -2 -45 -7 -70 -10 -43 -5 -108
-14 -140 -20 -165 -28 -220 -39 -220 -45 0 -4 44 -38 97 -76 427 -303 800
-474 1176 -539 154 -26 371 -35 508 -21 30 3 81 8 114 11 33 3 67 8 75 10 8 3
33 7 55 10 52 8 337 70 434 95 42 10 87 21 101 24 14 2 57 11 95 20 152 35
320 54 465 54 197 0 295 -16 680 -109 269 -66 321 -77 460 -98 189 -29 407
-31 545 -5 432 82 783 316 1161 774 119 144 235 310 222 315 -11 4 -227 12
-231 9z"/>
</g>
</svg>
